# xmcd
#
# Track frame offsets:
#	150
#	20271
#	40473
#	61294
#	81066
#	99571
#	120541
#	142964
#	165768
#	185590
#	205743
#	225877
#	249199
#	268459
#	288827
#	308549
#	328182
#
# Disc length: 4649 seconds
#
# Revision: 1
# Processed by: cddbd v1.5.2PL0 Copyright (c) Steve Scherf et al.
# Submitted via: EZCDAudioConverter 7.0.6.1
#
DISCID=da122711
DTITLE=K. S. Chithra - K.S. Chithra
DYEAR=2012
DGENRE=
TTITLE0=K.S. Chithra - Indha Vennila
TTITLE1=K.S. Chithra - Yaaro Sonnaangalaam
TTITLE2=K.S. Chithra - Vandadhe
TTITLE3=K.S. Chithra feat. Malaysia Vasudevan - Chitthirai Maasatthu
TTITLE4=K.S. Chithra feat. S.P. Balasubrahmaniyam - Manjai Ndhi
TTITLE5=K.S. Chithra - Kaiyodu Ennai
TTITLE6=K.S. Chithra feat. S.P. Balasubrahmaniyam - Vaa Veliye
TTITLE7=K.S. Chithra feat. Malaysia Vasudevan - Oh My Love
TTITLE8=K.S. Chithra feat. S.P. Balasubrahmaniyam - Sikkunnu
TTITLE9=K.S. Chithra feat. Malaysia Vasudevan - Hey Maina
TTITLE10=K.S. Chithra feat. S.P. Balasubrahmaniyam - Rathiri Thookkam
TTITLE11=K.S. Chithra feat. S.P. Balasubrahmaniyam - Oru Pooncholai
TTITLE12=K.S. Chithra feat. Mano - Pon Maaney
TTITLE13=K.S. Chithra feat. Gangai Amaran - Poojaikettha
TTITLE14=K.S. Chithra feat. Illayaraja - Nethu Oruthara
TTITLE15=K.S. Chithra feat. S.P. Balasubrahmaniyam - Kankaliley
TTITLE16=K.S. Chithra feat. Illayaraja - Velli Kizhamai
EXTD=
EXTT0=
EXTT1=
EXTT2=
EXTT3=
EXTT4=
EXTT5=
EXTT6=
EXTT7=
EXTT8=
EXTT9=
EXTT10=
EXTT11=
EXTT12=
EXTT13=
EXTT14=
EXTT15=
EXTT16=
PLAYORDER=
